
<svg version="1.0" xmlns="http://www.w3.org/2000/svg"
 width="1000.000000pt" height="1000.000000pt" viewBox="0 0 1000.000000 1000.000000"
 preserveAspectRatio="xMidYMid meet">

<g transform="translate(0.000000,1000.000000) scale(0.100000,-0.100000)"
fill="#000000" stroke="none">
<path d="M0 5000 l0 -5000 5000 0 5000 0 0 5000 0 5000 -5000 0 -5000 0 0
-5000z m2327 1538 c-6 -3 7 -10 29 -13 78 -14 185 -76 259 -150 126 -126 170
-245 162 -435 -5 -119 -21 -180 -70 -260 -61 -101 -173 -200 -262 -231 -22 -8
-42 -16 -45 -19 -26 -28 -289 -45 -314 -20 -5 5 -20 10 -31 10 -12 0 -49 14
-83 30 -34 17 -66 30 -70 30 -4 0 -36 29 -72 65 -35 35 -68 61 -74 58 -6 -3
-8 -3 -4 1 3 4 -9 34 -28 67 -58 98 -77 169 -78 294 -2 171 43 282 163 406
126 128 251 174 478 174 28 0 46 -3 40 -7z m118 -8 c8 -13 -5 -13 -25 0 -13 8
-13 10 2 10 9 0 20 -4 23 -10z m5953 -10 c34 -11 82 -31 108 -45 26 -14 50
-22 55 -19 5 3 9 0 9 -6 0 -17 62 -70 73 -63 6 3 7 1 3 -6 -4 -6 0 -14 8 -17
14 -5 58 -68 92 -131 7 -13 22 -52 34 -87 19 -56 22 -80 18 -197 -4 -109 -9
-145 -27 -192 -12 -31 -28 -63 -35 -70 -8 -7 -16 -22 -20 -33 -5 -16 -74 -91
-136 -148 -22 -20 -113 -66 -130 -66 -9 0 -20 -4 -26 -9 -46 -42 -295 -43
-373 -1 -9 5 -27 11 -41 14 -44 9 -148 86 -208 154 -66 74 -110 172 -123 272
-5 36 -11 77 -15 91 -3 15 -1 30 5 33 6 4 11 27 11 51 0 122 79 271 194 365
39 33 82 62 96 65 14 4 27 10 30 15 3 4 34 17 70 28 92 28 245 29 328 2z
m-6688 -230 c0 -5 -4 -10 -10 -10 -5 0 -10 5 -10 10 0 6 5 10 10 10 6 0 10 -4
10 -10z m-75 -440 c3 -5 1 -10 -4 -10 -6 0 -11 5 -11 10 0 6 2 10 4 10 3 0 8
-4 11 -10z m1002 -312 c-3 -8 -6 -5 -6 6 -1 11 2 17 5 13 3 -3 4 -12 1 -19z
m-827 2 c0 -5 -2 -10 -4 -10 -3 0 -8 5 -11 10 -3 6 -1 10 4 10 6 0 11 -4 11
-10z m6855 -2057 c39 -19 104 -89 121 -130 21 -50 18 -171 -5 -210 -18 -29
-119 -103 -141 -103 -6 0 -10 -3 -10 -8 0 -8 -120 -72 -135 -72 -4 0 -13 -7
-20 -16 -6 -9 -27 -22 -46 -29 -75 -28 -104 -40 -109 -45 -3 -3 -36 -19 -73
-34 -38 -16 -75 -35 -83 -43 -8 -8 -14 -10 -14 -5 0 5 -26 -3 -57 -18 -32 -15
-83 -34 -113 -41 -30 -7 -61 -19 -68 -26 -7 -7 -25 -16 -40 -19 -15 -4 -53
-15 -84 -25 -32 -11 -68 -19 -82 -19 -13 0 -26 -4 -28 -8 -3 -9 -135 -52 -158
-52 -16 0 -78 -19 -102 -31 -10 -5 -28 -9 -41 -9 -13 0 -37 -4 -53 -9 -16 -5
-51 -13 -79 -17 l-50 -8 45 -7 c41 -6 39 -7 -20 -6 -79 1 -211 -13 -225 -23
-5 -4 -39 -10 -75 -14 -36 -3 -105 -10 -155 -16 -248 -28 -672 -33 -865 -10
-208 25 -257 32 -286 41 -17 5 -41 9 -54 9 -12 0 -39 4 -59 9 -20 5 -63 15
-96 22 -33 6 -82 18 -110 26 -100 29 -167 43 -177 37 -6 -4 -8 -2 -5 3 7 11
-76 43 -112 43 -12 0 -21 5 -21 10 0 6 -8 10 -18 10 -16 0 -146 46 -197 70
-11 5 -45 19 -75 30 -30 12 -63 26 -72 31 -10 5 -26 13 -35 18 -10 5 -48 23
-85 41 -38 17 -68 34 -68 38 0 4 -25 18 -55 32 -30 14 -55 28 -55 32 0 5 -6 8
-14 8 -7 0 -19 7 -26 15 -7 9 -19 14 -26 11 -8 -3 -11 0 -8 8 3 7 -1 20 -8 27
-18 19 -36 57 -48 97 -16 56 21 154 80 213 37 37 56 49 80 49 16 0 30 5 30 10
0 12 77 13 84 1 3 -4 24 -11 46 -14 37 -5 103 -30 160 -62 70 -38 146 -75 157
-75 7 0 13 -4 13 -10 0 -13 27 -13 33 0 3 6 4 5 3 -2 -2 -11 55 -47 76 -48 4
0 31 -11 60 -24 29 -13 91 -37 138 -53 47 -15 87 -31 88 -35 2 -5 12 -8 23 -8
10 0 65 -13 122 -30 58 -16 116 -30 130 -30 14 0 29 -4 32 -10 3 -5 18 -10 33
-10 15 0 88 -9 162 -21 74 -11 162 -24 195 -29 212 -33 760 -13 998 34 43 9
94 16 113 16 19 0 42 4 52 9 21 12 272 71 299 71 10 0 23 4 28 8 10 9 105 39
195 62 25 7 54 16 65 21 11 4 58 22 105 39 47 17 92 35 101 40 8 4 51 23 95
40 118 49 361 164 444 211 83 46 168 54 235 22z m-4021 -138 c-4 -8 -11 -12
-16 -9 -6 4 -5 10 3 15 19 12 19 11 13 -6z m-464 -285 c6 -11 7 -20 2 -20 -6
0 -12 9 -15 20 -3 11 -3 20 -1 20 2 0 8 -9 14 -20z m1287 -36 c-3 -3 -12 -4
-19 -1 -8 3 -5 6 6 6 11 1 17 -2 13 -5z m314 -82 c-7 -2 -18 1 -23 6 -8 8 -4
9 13 5 13 -4 18 -8 10 -11z m1046 2 c-3 -3 -12 -4 -19 -1 -8 3 -5 6 6 6 11 1
17 -2 13 -5z m-844 -21 c-13 -2 -33 -2 -45 0 -13 2 -3 4 22 4 25 0 35 -2 23
-4z m690 0 c-7 -2 -19 -2 -25 0 -7 3 -2 5 12 5 14 0 19 -2 13 -5z m937 -343
c-8 -5 -19 -10 -25 -10 -5 0 -3 5 5 10 8 5 20 10 25 10 6 0 3 -5 -5 -10z
m-2320 -90 c18 -12 2 -12 -25 0 -13 6 -15 9 -5 9 8 0 22 -4 30 -9z m2080 0
c-8 -5 -19 -10 -25 -10 -5 0 -3 5 5 10 8 5 20 10 25 10 6 0 3 -5 -5 -10z
m-1497 -77 c-7 -2 -19 -2 -25 0 -7 3 -2 5 12 5 14 0 19 -2 13 -5z m844 1 c-3
-3 -12 -4 -19 -1 -8 3 -5 6 6 6 11 1 17 -2 13 -5z"/>
</g>
</svg>
